<?xml version="1.0" standalone="no"?>
<!DOCTYPE svg PUBLIC "-//W3C//DTD SVG 20010904//EN"
 "http://www.w3.org/TR/2001/REC-SVG-20010904/DTD/svg10.dtd">
<svg version="1.0" xmlns="http://www.w3.org/2000/svg"
 width="256.000000pt" height="256.000000pt" viewBox="0 0 256.000000 256.000000"
 preserveAspectRatio="xMidYMid meet">

<g transform="translate(0.000000,256.000000) scale(0.100000,-0.100000)"
fill="#000000" stroke="none">
<path d="M960 2506 c-159 -28 -335 -90 -449 -159 -97 -58 -95 -87 10 -125 89
-32 105 -50 101 -115 -9 -154 -10 -146 49 -268 l56 -114 -41 -20 c-54 -26 -86
-75 -86 -131 0 -66 16 -88 117 -170 51 -41 93 -80 93 -87 0 -7 16 -48 36 -92
19 -44 38 -86 41 -92 4 -10 -37 -13 -186 -13 -204 0 -225 -4 -279 -54 -48 -43
-62 -87 -62 -198 l-1 -103 -60 -35 c-115 -65 -210 -190 -244 -321 -19 -69 -21
-339 -3 -357 17 -17 2439 -17 2456 0 18 18 16 288 -3 357 -34 131 -129 256
-244 321 l-60 35 -1 103 c0 135 -26 189 -112 233 -33 17 -60 19 -229 19 -149
0 -190 3 -186 13 3 6 22 48 41 92 20 44 36 85 36 92 0 7 37 42 83 78 102 83
127 116 127 173 0 71 -37 123 -103 146 l-35 12 51 134 c50 132 51 138 51 245
1 104 -1 114 -31 178 -40 85 -111 155 -200 199 l-68 33 -295 2 c-203 1 -318
-3 -370 -11z m632 -80 c169 -40 280 -205 249 -372 -6 -34 -18 -79 -27 -100
l-16 -39 -19 60 c-23 75 -145 259 -175 263 -13 2 -44 -17 -85 -49 -91 -73
-146 -96 -261 -108 -53 -5 -117 -18 -141 -29 -24 -11 -111 -64 -194 -120
l-150 -100 -36 74 c-40 80 -43 101 -26 168 19 77 -21 165 -94 203 -36 18 -36
18 76 63 105 42 246 78 347 89 139 14 487 13 552 -3z m48 -362 c57 -91 71
-133 77 -246 l6 -98 -190 0 c-204 0 -213 -2 -213 -52 0 -26 -3 -28 -40 -28
-37 0 -40 2 -40 28 0 50 -9 52 -212 52 l-188 0 0 28 c0 24 17 38 140 120 76
51 154 99 173 107 19 8 78 18 131 24 108 11 193 44 256 99 19 17 40 31 47 32
6 0 30 -30 53 -66z m-877 -506 c4 -45 6 -83 4 -84 -1 -1 -19 12 -39 29 -50 43
-58 78 -24 111 43 44 52 35 59 -56z m157 7 c0 -129 35 -165 160 -165 110 0
160 39 160 125 0 34 1 35 40 35 39 0 40 -1 40 -35 0 -86 50 -125 160 -125 125
0 160 36 160 165 l0 75 39 0 39 0 -5 -47 c-13 -149 -51 -290 -109 -405 l-34
-68 -291 0 -290 0 -44 93 c-47 100 -92 266 -97 365 l-4 62 38 0 38 0 0 -75z
m240 11 c0 -80 -13 -96 -80 -96 -67 0 -80 16 -80 96 l0 64 80 0 80 0 0 -64z
m400 0 c0 -80 -13 -96 -80 -96 -67 0 -80 16 -80 96 l0 64 80 0 80 0 0 -64z
m296 38 c34 -33 26 -68 -24 -111 -20 -17 -38 -30 -39 -29 -2 1 0 39 4 84 7 91
16 100 59 56z m194 -592 c69 -34 70 -38 70 -494 l0 -408 -840 0 -840 0 0 408
c0 456 1 460 70 494 32 17 90 18 770 18 680 0 738 -1 770 -18z m-1690 -627 l0
-275 -120 0 -120 0 0 88 c0 160 31 263 107 351 29 34 118 109 131 111 1 0 2
-124 2 -275z m1969 169 c79 -90 111 -193 111 -356 l0 -88 -120 0 -120 0 0 275
0 276 44 -30 c24 -17 62 -51 85 -77z"/>
<path d="M922 906 c-54 -55 -82 -91 -82 -106 0 -15 29 -52 85 -109 l84 -86 33
32 33 33 -65 65 -64 65 64 65 64 65 -29 30 c-16 16 -32 30 -35 30 -4 0 -43
-38 -88 -84z"/>
<path d="M1515 960 l-29 -30 64 -65 64 -65 -64 -65 -65 -65 33 -33 33 -32 84
86 c56 57 85 94 85 109 0 15 -28 51 -82 106 -45 46 -84 84 -88 84 -3 0 -19
-14 -35 -30z"/>
<path d="M1245 823 l-118 -157 27 -23 c15 -13 31 -23 35 -23 4 0 61 70 126
156 l119 157 -28 23 c-15 13 -31 24 -35 24 -5 0 -61 -71 -126 -157z"/>
<path d="M1199 537 c-18 -12 -44 -38 -56 -56 -47 -70 -19 -177 57 -220 141
-79 298 78 219 219 -43 76 -150 104 -220 57z m132 -86 c16 -16 29 -39 29 -51
0 -28 -52 -80 -80 -80 -28 0 -80 52 -80 80 0 28 52 80 80 80 12 0 35 -13 51
-29z"/>
</g>
</svg>
